# xmcd
#
# Track frame offsets:
#	150
#	18485
#	37907
#	58879
#	77824
#	94542
#	113686
#	132806
#	149043
#	168910
#	182670
#	199882
#	213628
#	231159
#	249144
#	268155
#
# Disc length: 3806 seconds
#
# Revision: 2
# Processed by: cddbd v1.5.2PL0 Copyright (c) Steve Scherf et al.
# Submitted via: audiograbber 1.83.01
#
DISCID=e00edc10
DTITLE=Various Artist - CDX Volume 409
DYEAR=2006
DGENRE=Country
TTITLE0=Rushlow Harris - Bagpipes Cryin'
TTITLE1=Heartland - Built To Last (Album Version)
TTITLE2=Raul Malo (feat. Martina McBride) - Feels Like Home
TTITLE3=Heartland - Let's Get Dirty (Album Version)
TTITLE4=Paul Overstreet - She Loves Me For My Willie
TTITLE5=Tresa Jordan - Angels Cry
TTITLE6=Marthia Sides - Picture Perfect Girl
TTITLE7=Johnny Tex and the Texicans - So Long, Texas - Hello Mexico
TTITLE8=Billy McKnight - Talk About Love
TTITLE9=Russell Walker - Talkin' Dirty
TTITLE10=(Christmas) Les Richardson - That's Why I Come Home
TTITLE11=(Christmas) Kathie Ballie - The Christmas Song
TTITLE12=(Christmas) Leland Martin - Flags On The Christmas Tree
TTITLE13=(Christmas) Michelle Nicolo Prentice - I'll Be Home For Christmas
TTITLE14=(Christmas) Kacey Jones - I'm Down To My Christmas Underwear
TTITLE15=(Christmas) Doug Wayne - That Star Still Shines
EXTD=Fixed Numerous Typos
EXTT0=
EXTT1=
EXTT2=
EXTT3=
EXTT4=
EXTT5=
EXTT6=
EXTT7=
EXTT8=
EXTT9=
EXTT10=
EXTT11=
EXTT12=
EXTT13=
EXTT14=
EXTT15=
PLAYORDER=
